<svg xmlns="http://www.w3.org/2000/svg" width="500" height="500" style="width:100%;height:100%"><defs><clipPath id="a"><path d="M0 0h500v500H0z"/></clipPath></defs><g clip-path="url(#a)"><path stroke-linecap="round" stroke-linejoin="round" stroke="#5240B4" stroke-width="12.04" d="M232.606 268.459h34.788c19.213 0 34.787 15.574 34.787 34.787v11.638a6.286 6.286 0 01-5.564 6.245l-12.173 1.408a35.74 35.74 0 00-9.671 2.527s0 0 0 0a64.557 64.557 0 01-49.678.051l-.084-.035a37.472 37.472 0 00-10.088-2.622l-11.538-1.331a6.285 6.285 0 01-5.566-6.245v-11.636c0-19.213 15.574-34.787 34.787-34.787zm16.581-98.519h1.626c14.139 0 25.461 11.723 24.969 25.853l-.813 23.379c-.468 13.452-11.509 24.116-24.969 24.116 0 0 0 0 0 0-13.46 0-24.501-10.664-24.969-24.116l-.813-23.379c-.492-14.13 10.83-25.853 24.969-25.853z" fill="none" display="block"/><path stroke-linecap="round" stroke-linejoin="round" stroke="#C4C5FB" stroke-width="12.04" d="M276.687 89.88c0 14.739-11.948 26.687-26.687 26.687s-26.687-11.948-26.687-26.687S235.261 63.194 250 63.194s26.687 11.947 26.687 26.686zm-152.011 56.949c12.764 7.369 17.137 23.69 9.768 36.454s-23.691 17.137-36.455 9.768-17.137-23.69-9.768-36.454 23.691-17.137 36.455-9.768zM97.989 306.948c12.764-7.369 29.086-2.996 36.455 9.768 7.369 12.764 2.996 29.085-9.768 36.454-12.764 7.369-29.086 2.996-36.455-9.768-7.369-12.764-2.996-29.085 9.768-36.454zm125.324 103.171c0-14.739 11.948-26.687 26.687-26.687s26.687 11.948 26.687 26.687-11.948 26.686-26.687 26.686-26.687-11.947-26.687-26.686zm152.011-56.949c-12.764-7.369-17.137-23.69-9.768-36.454s23.691-17.137 36.455-9.768 17.137 23.69 9.768 36.454-23.691 17.137-36.455 9.768zm26.687-160.119c-12.764 7.369-29.086 2.996-36.455-9.768-7.369-12.764-2.996-29.085 9.768-36.454 12.764-7.369 29.086-2.996 36.455 9.768 7.369 12.764 2.996 29.085-9.768 36.454zM276.68 408.701c39.23-6.55 73.66-27.29 97.82-56.77m-97.91-260.61c38.83 6.45 72.95 26.81 97.08 55.79M98.99 305.651c-6.39-17.34-9.88-36.07-9.88-55.63 0-20.05 3.67-39.23 10.36-56.93m123.85 215.61c-39.23-6.55-73.66-27.29-97.82-56.77m.83-204.82c24.13-28.98 58.25-49.34 97.08-55.79m177.12 101.77c6.69 17.7 10.36 36.88 10.36 56.93 0 19.56-3.49 38.29-9.88 55.63" fill="none" display="block"/></g></svg>